<svg width="401" height="301" viewBox="0 0 401 301" fill="none" xmlns="http://www.w3.org/2000/svg">
<g filter="url(#filter0_d_5_158)">
<path d="M4 292.466C4 292.179 4.46695 292.138 4.52555 292.419C4.55452 292.557 4.45351 292.686 4.31201 292.695L4.24957 292.7C4.11461 292.709 4 292.602 4 292.466ZM397 265.489C397 265.738 396.807 265.945 396.558 265.961C396.243 265.983 395.996 265.695 396.056 265.384C396.348 263.869 396.5 262.241 396.5 260.493C396.5 194.233 308.524 174 200 174C101.462 174 101.896 277.051 27.952 278.888C13.8776 279.238 4 266.315 4 252.237V85C4 68.4315 17.4315 55 34 55H367C383.569 55 397 68.4315 397 85V265.489Z" fill="#FFD1D1"/>
</g>
<g filter="url(#filter1_d_5_158)">
<path d="M397 238.922C397 238.928 396.996 238.932 396.991 238.932C396.985 238.932 396.98 238.928 396.98 238.922C395.499 174.002 308.1 154.112 200.5 154.112C101.694 154.112 102.399 257.723 27.8487 259.013C13.8164 259.256 4 246.369 4 232.335V58C4 41.4315 17.4315 28 34 28H367C383.569 28 397 41.4315 397 58V238.922Z" fill="url(#paint0_linear_5_158)"/>
</g>
<path d="M397 210.932L396.98 210.933C395.508 146.004 308.105 126.112 200.5 126.112C92.1571 126.112 103.462 250.691 4 228.342V0H397V210.932Z" fill="url(#paint1_linear_5_158)"/>
<defs>
<filter id="filter0_d_5_158" x="0" y="55" width="401" height="245.7" filterUnits="userSpaceOnUse" color-interpolation-filters="sRGB">
<feFlood flood-opacity="0" result="BackgroundImageFix"/>
<feColorMatrix in="SourceAlpha" type="matrix" values="0 0 0 0 0 0 0 0 0 0 0 0 0 0 0 0 0 0 127 0" result="hardAlpha"/>
<feOffset dy="4"/>
<feGaussianBlur stdDeviation="2"/>
<feComposite in2="hardAlpha" operator="out"/>
<feColorMatrix type="matrix" values="0 0 0 0 0 0 0 0 0 0 0 0 0 0 0 0 0 0 0.25 0"/>
<feBlend mode="normal" in2="BackgroundImageFix" result="effect1_dropShadow_5_158"/>
<feBlend mode="normal" in="SourceGraphic" in2="effect1_dropShadow_5_158" result="shape"/>
</filter>
<filter id="filter1_d_5_158" x="0" y="28" width="401" height="239.017" filterUnits="userSpaceOnUse" color-interpolation-filters="sRGB">
<feFlood flood-opacity="0" result="BackgroundImageFix"/>
<feColorMatrix in="SourceAlpha" type="matrix" values="0 0 0 0 0 0 0 0 0 0 0 0 0 0 0 0 0 0 127 0" result="hardAlpha"/>
<feOffset dy="4"/>
<feGaussianBlur stdDeviation="2"/>
<feComposite in2="hardAlpha" operator="out"/>
<feColorMatrix type="matrix" values="0 0 0 0 0 0 0 0 0 0 0 0 0 0 0 0 0 0 0.25 0"/>
<feBlend mode="normal" in2="BackgroundImageFix" result="effect1_dropShadow_5_158"/>
<feBlend mode="normal" in="SourceGraphic" in2="effect1_dropShadow_5_158" result="shape"/>
</filter>
<linearGradient id="paint0_linear_5_158" x1="200.5" y1="28" x2="200.5" y2="259.017" gradientUnits="userSpaceOnUse">
<stop offset="0.365385" stop-color="#F45151"/>
<stop offset="0.557692" stop-color="#AA2525"/>
</linearGradient>
<linearGradient id="paint1_linear_5_158" x1="200.5" y1="0" x2="200.5" y2="231.017" gradientUnits="userSpaceOnUse">
<stop offset="0.379808" stop-color="#C62828"/>
<stop offset="1" stop-color="#7E2828"/>
</linearGradient>
</defs>
</svg>
